<svg width="1008" height="882" viewBox="0 0 1008 882" fill="none" xmlns="http://www.w3.org/2000/svg">
<path d="M1007.62 0H926.198V81.362H1007.62V0Z" fill="#191919"/>
<path d="M370.42 316.604H289V397.966H370.42V316.604Z" fill="#191919"/>
<path d="M334.699 362.313H978.401V36.673H334.699V362.313Z" fill="#191919"/>
<path d="M983.711 367.62H329.389V31.3665H983.711V367.62ZM340.009 357.007H973.091V41.9789H340.009V357.007Z" fill="#393939"/>
<path d="M907.22 150.901H411.964V167.314H907.22V150.901Z" fill="#393939"/>
<path d="M907.22 190.704H411.964V207.116H907.22V190.704Z" fill="#393939"/>
<path d="M907.22 249.473H815.181V263.716H907.22V249.473Z" fill="#61A0EA"/>
<path d="M385.421 482.411C385.954 479.659 385.878 476.825 385.196 474.107C384.514 471.388 383.245 468.853 381.476 466.678C379.708 464.503 377.484 462.742 374.961 461.519C372.437 460.296 369.677 459.641 366.873 459.6L350.676 418.896L323.522 422.699L347.203 479.859C347.446 484.571 349.41 489.03 352.723 492.392C356.035 495.753 360.467 497.784 365.178 498.098C369.889 498.413 374.552 496.99 378.283 494.098C382.014 491.207 384.554 487.048 385.421 482.411Z" fill="#9F616A"/>
<path d="M335.396 468.109L326.982 448.06L274.552 348.33L277.403 163.793L277.951 163.721C311.499 159.291 334.198 313.76 335.148 320.339L368.274 433.553L376.16 458.507L335.396 468.109Z" fill="#5E98DD"/>
<path d="M254.835 857.234L280.327 857.232L292.453 758.977L254.83 758.979L254.835 857.234Z" fill="#9F616A"/>
<path d="M248.332 848.917L298.535 848.915H298.537C307.021 848.915 315.159 852.284 321.158 858.279C327.158 864.275 330.529 872.406 330.53 880.885V881.924L248.334 881.927L248.332 848.917Z" fill="white"/>
<path d="M20.4473 818.422L41.3633 832.986L107.529 759.304L76.6605 737.809L20.4473 818.422Z" fill="#9F616A"/>
<path d="M19.8714 807.884L61.0601 836.565L61.0618 836.566C68.0228 841.415 72.7716 848.827 74.2636 857.174C75.7557 865.52 73.8689 874.118 69.0182 881.074L68.4238 881.927L0.986206 834.967L19.8714 807.884Z" fill="white"/>
<path d="M240.825 834.138L239.723 649.818L223.684 533.919L193.78 635.841L193.722 635.925L85.354 793.14L43.187 771.79L43.418 771.242C45.995 765.117 106.717 621.264 123.038 621.264C124.464 621.364 125.892 621.116 127.2 620.541C128.508 619.967 129.657 619.083 130.547 617.967C135.338 611.574 131.437 598.01 131.396 597.874C126.724 578.514 138.472 571.92 140.812 570.819L147.105 440.999L147.757 441.044L318.366 453.003L311.209 615.313L295.812 827.971L295.283 828.031L240.825 834.138Z" fill="#E2E2E2"/>
<path d="M320.973 481.769L320.235 481.709L136.75 466.929L137.202 406.262L146.183 247.856L146.234 247.746L182.807 168.403L208.733 156.672L246.558 154.683L246.65 154.706L281.17 163.252L317.08 420.849L320.973 481.769Z" fill="#61A0EA"/>
<path d="M252.485 134.349C275.896 121.56 284.5 92.2278 271.702 68.8332C258.904 45.4387 229.551 36.8409 206.14 49.6295C182.729 62.4182 174.125 91.7504 186.923 115.145C199.721 138.539 229.074 147.137 252.485 134.349Z" fill="#9F616A"/>
<path d="M180.728 104.107V85.298C180.728 85.298 165.548 67.4331 182.246 62.933C182.246 62.933 186.8 17.9312 226.266 38.932C226.266 38.932 280.912 29.9317 274.84 61.4329C274.84 61.4329 288.501 53.209 283.948 74.2098L275.14 108.038C275.14 108.038 279.394 85.6922 265.732 82.692L258.143 78.1918C258.143 78.1918 236.891 99.1927 205.015 73.6916C205.015 73.6916 191.353 70.4333 192.871 83.9339C194.389 97.4344 180.728 104.107 180.728 104.107Z" fill="#2F2E41"/>
<path d="M224.283 436.464C224.313 433.662 223.728 430.887 222.57 428.335C221.411 425.784 219.707 423.517 217.576 421.694C215.446 419.872 212.942 418.538 210.24 417.788C207.538 417.037 204.705 416.888 201.939 417.35L178.695 380.212L152.666 388.822L186.227 440.808C187.312 445.399 190.044 449.434 193.907 452.147C197.77 454.86 202.494 456.063 207.185 455.527C211.876 454.992 216.208 452.756 219.359 449.242C222.51 445.729 224.262 441.182 224.283 436.464Z" fill="#9F616A"/>
<path d="M164.249 424.758L122.198 339.443L122.236 339.236C122.405 338.291 139.332 244.372 152.278 209.85C165.306 175.109 183.139 168.134 183.892 167.854L184.268 167.714L200.258 183.041L178.108 330.778L201.983 402.03L164.249 424.758Z" fill="#5E98DD"/>
</svg>
