<svg width="58" height="58" viewBox="0 0 58 58" fill="none" xmlns="http://www.w3.org/2000/svg">
<path d="M39 29C39 34.5228 34.5228 39 29 39C23.4772 39 19 34.5228 19 29C19 23.4772 23.4772 19 29 19C34.5228 19 39 23.4772 39 29Z" fill="white"/>
<rect x="26" width="6" height="14" rx="2" fill="white"/>
<rect x="26" y="44" width="6" height="14" rx="2" fill="white"/>
<rect x="44" y="32" width="6" height="14" rx="2" transform="rotate(-90 44 32)" fill="white"/>
<rect y="32" width="6" height="14" rx="2" transform="rotate(-90 0 32)" fill="white"/>
<rect x="14.8995" y="39" width="6" height="14" rx="2" transform="rotate(45 14.8995 39)" fill="white"/>
<rect x="48.8995" y="5" width="6" height="14" rx="2" transform="rotate(45 48.8995 5)" fill="white"/>
<rect x="5" y="9.24268" width="6" height="14" rx="2" transform="rotate(-45 5 9.24268)" fill="white"/>
<rect x="39" y="43.2427" width="6" height="14" rx="2" transform="rotate(-45 39 43.2427)" fill="white"/>
</svg>
